<svg width="447" height="350" viewBox="0 0 447 350" fill="none" xmlns="http://www.w3.org/2000/svg">
<path d="M95.2 28C77.0667 34.4 63.2 44.5333 53.6 58.4C44.2667 72 39.6 88.5333 39.6 108C39.6 116.533 40.5333 124.4 42.4 131.6C44.2667 138.533 46.9333 144.267 50.4 148.8C33.3333 148.8 20.6667 145.333 12.4 138.4C4.4 131.2 0.4 120.267 0.4 105.6C0.4 86.9333 5.86667 69.6 16.8 53.6C27.7333 37.3333 42.5333 24.4 61.2 14.8C79.8667 5.19999 100.133 0.399997 122 0.399997C128.133 0.399997 133.467 0.799992 138 1.59998C142.533 2.39999 147.733 3.86666 153.6 6L201.6 220L246.4 2.79999H285.2L220 302H164.8L118.4 103.6L72.8 302H34.8L95.2 28Z" fill="#4464E0"/>
<path d="M402.6 349.4C388.467 349.4 378.2 345.133 371.8 336.6C365.4 328.067 362.2 317.267 362.2 304.2C362.2 298.6 362.867 292.333 364.2 285.4C365.533 278.2 366.867 271.267 368.2 264.6C369.8 257.933 370.867 253.667 371.4 251.8C373.533 242.467 375.533 233.267 377.4 224.2C379.267 215.133 380.2 207.8 380.2 202.2C380.2 188.6 375.4 181.8 365.8 181.8C358.867 181.8 352.733 185.267 347.4 192.2C342.067 198.867 337.8 207.667 334.6 218.6L307.4 347H249.8L292.2 147H349.8L345.4 167.8C358.733 152.867 374.333 145.4 392.2 145.4C405.8 145.4 416.6 149.133 424.6 156.6C432.6 164.067 436.6 175.4 436.6 190.6C436.6 198.333 435.667 207 433.8 216.6C431.933 225.933 429.267 237.4 425.8 251C423.667 259.267 421.667 267.4 419.8 275.4C418.2 283.133 417.4 289.267 417.4 293.8C417.4 299.133 418.6 303.267 421 306.2C423.4 309.133 427.533 310.6 433.4 310.6C439.8 310.6 444.2 309.8 446.6 308.2C445 321.8 440.067 332.067 431.8 339C423.8 345.933 414.067 349.4 402.6 349.4Z" fill="#9E9375"/>
</svg>
